<?xml version="1.0" encoding="UTF-8"?>
<svg width="800" height="400" viewBox="0 0 800 400" xmlns="http://www.w3.org/2000/svg">
    <!-- 背景 -->
    <rect width="800" height="400" fill="#f8f9fa"/>
    
    <!-- 标题 -->
    <text x="400" y="50" text-anchor="middle" font-size="24" font-weight="bold" fill="#2c3e50">通用模型特点</text>
    
    <!-- 左侧：核心优势 -->
    <g transform="translate(200,120)">
        <rect x="-150" y="-30" width="300" height="260" rx="10" fill="#f3e5f5" stroke="#7b1fa2" stroke-width="2"/>
        <text x="0" y="-10" text-anchor="middle" font-size="18" font-weight="bold" fill="#7b1fa2">核心优势</text>
        
        <g transform="translate(0,30)">
            <circle cx="-120" cy="0" r="6" fill="#7b1fa2"/>
            <text x="-100" y="5" fill="#2c3e50">语言生成能力</text>
            
            <circle cx="-120" cy="40" r="6" fill="#7b1fa2"/>
            <text x="-100" y="45" fill="#2c3e50">上下文理解</text>
            
            <circle cx="-120" cy="80" r="6" fill="#7b1fa2"/>
            <text x="-100" y="85" fill="#2c3e50">创意写作</text>
            
            <circle cx="-120" cy="120" r="6" fill="#7b1fa2"/>
            <text x="-100" y="125" fill="#2c3e50">多轮对话</text>
            
            <circle cx="-120" cy="160" r="6" fill="#7b1fa2"/>
            <text x="-100" y="165" fill="#2c3e50">开放性问答</text>
        </g>
    </g>
    
    <!-- 右侧：应用场景 -->
    <g transform="translate(600,120)">
        <rect x="-150" y="-30" width="300" height="260" rx="10" fill="#fff3e0" stroke="#f57c00" stroke-width="2"/>
        <text x="0" y="-10" text-anchor="middle" font-size="18" font-weight="bold" fill="#f57c00">应用场景</text>
        
        <g transform="translate(0,30)">
            <circle cx="-120" cy="0" r="6" fill="#f57c00"/>
            <text x="-100" y="5" fill="#2c3e50">文本生成</text>
            
            <circle cx="-120" cy="40" r="6" fill="#f57c00"/>
            <text x="-100" y="45" fill="#2c3e50">语言理解</text>
            
            <circle cx="-120" cy="80" r="6" fill="#f57c00"/>
            <text x="-100" y="85" fill="#2c3e50">文本分类</text>
            
            <circle cx="-120" cy="120" r="6" fill="#f57c00"/>
            <text x="-100" y="125" fill="#2c3e50">机器翻译</text>
            
            <circle cx="-120" cy="160" r="6" fill="#f57c00"/>
            <text x="-100" y="165" fill="#2c3e50">日常对话</text>
        </g>
    </g>
    
    <!-- 底部：代表模型 -->
    <g transform="translate(400,350)">
        <rect x="-200" y="-30" width="400" height="60" rx="10" fill="#e3f2fd" stroke="#1976d2" stroke-width="2"/>
        <text x="0" y="0" text-anchor="middle" font-size="16" font-weight="bold" fill="#1976d2">代表模型</text>
        <text x="0" y="20" text-anchor="middle" font-size="14" fill="#2c3e50">DeepSeek-V3 / GPT-3 / GPT-4 / BERT</text>
    </g>
</svg> 