<?xml version="1.0" encoding="UTF-8"?>
<svg width="800" height="400" viewBox="0 0 800 400" xmlns="http://www.w3.org/2000/svg">
    <!-- 背景 -->
    <rect width="800" height="400" fill="#f8f9fa"/>
    
    <!-- 标题 -->
    <text x="400" y="50" text-anchor="middle" font-size="24" font-weight="bold" fill="#2c3e50">推理大模型特点</text>
    
    <!-- 左侧：核心能力 -->
    <g transform="translate(200,120)">
        <rect x="-150" y="-30" width="300" height="260" rx="10" fill="#e3f2fd" stroke="#1976d2" stroke-width="2"/>
        <text x="0" y="-10" text-anchor="middle" font-size="18" font-weight="bold" fill="#1976d2">核心能力</text>
        
        <g transform="translate(0,30)">
            <circle cx="-120" cy="0" r="6" fill="#1976d2"/>
            <text x="-100" y="5" fill="#2c3e50">强化推理能力</text>
            
            <circle cx="-120" cy="40" r="6" fill="#1976d2"/>
            <text x="-100" y="45" fill="#2c3e50">逻辑分析</text>
            
            <circle cx="-120" cy="80" r="6" fill="#1976d2"/>
            <text x="-100" y="85" fill="#2c3e50">决策能力</text>
            
            <circle cx="-120" cy="120" r="6" fill="#1976d2"/>
            <text x="-100" y="125" fill="#2c3e50">数学推理</text>
            
            <circle cx="-120" cy="160" r="6" fill="#1976d2"/>
            <text x="-100" y="165" fill="#2c3e50">复杂问题解决</text>
        </g>
    </g>
    
    <!-- 右侧：技术特点 -->
    <g transform="translate(600,120)">
        <rect x="-150" y="-30" width="300" height="260" rx="10" fill="#e8f5e9" stroke="#388e3c" stroke-width="2"/>
        <text x="0" y="-10" text-anchor="middle" font-size="18" font-weight="bold" fill="#388e3c">技术特点</text>
        
        <g transform="translate(0,30)">
            <circle cx="-120" cy="0" r="6" fill="#388e3c"/>
            <text x="-100" y="5" fill="#2c3e50">强化学习</text>
            
            <circle cx="-120" cy="40" r="6" fill="#388e3c"/>
            <text x="-100" y="45" fill="#2c3e50">神经符号推理</text>
            
            <circle cx="-120" cy="80" r="6" fill="#388e3c"/>
            <text x="-100" y="85" fill="#2c3e50">元学习</text>
            
            <circle cx="-120" cy="120" r="6" fill="#388e3c"/>
            <text x="-100" y="125" fill="#2c3e50">深度思考模式</text>
            
            <circle cx="-120" cy="160" r="6" fill="#388e3c"/>
            <text x="-100" y="165" fill="#2c3e50">链式推理</text>
        </g>
    </g>
    
    <!-- 底部：代表模型 -->
    <g transform="translate(400,350)">
        <rect x="-200" y="-30" width="400" height="60" rx="10" fill="#fff3e0" stroke="#f57c00" stroke-width="2"/>
        <text x="0" y="0" text-anchor="middle" font-size="16" font-weight="bold" fill="#f57c00">代表模型</text>
        <text x="0" y="20" text-anchor="middle" font-size="14" fill="#2c3e50">DeepSeek-R1 / GPT-o1 / GPT-o3</text>
    </g>
</svg> 